{
  "accessors": [
    {
      "bufferView": 2,
      "componentType": 5126,
      "count": 9861,
      "max": [
        -118.06199645996094,
        100.35800170898438,
        343.0050048828125
      ],
      "min": [
        -501.57379150390625,
        -115.30709838867188,
        -475.50250244140625
      ],
      "type": "VEC3"
    },
    {
      "bufferView": 2,
      "byteOffset": 118332,
      "componentType": 5126,
      "count": 9861,
      "max": [
        1.0,
        1.0,
        0.9998512268066406
      ],
      "min": [
        -0.9999996423721313,
        -0.9999948740005493,
        -0.9999988079071045
      ],
      "type": "VEC3"
    },
    {
      "bufferView": 1,
      "componentType": 5126,
      "count": 9861,
      "max": [
        1.0,
        1.010599970817566
      ],
      "min": [
        -0.027799999341368675,
        -0.026799999177455902
      ],
      "type": "VEC2"
    },
    {
      "bufferView": 0,
      "componentType": 5125,
      "count": 46488,
      "type": "SCALAR"
    },
    {
      "bufferView": 2,
      "byteOffset": 236664,
      "componentType": 5126,
      "count": 4072,
      "max": [
        -118.06199645996094,
        78.29660034179688,
        175.62420654296875
      ],
      "min": [
        -501.57379150390625,
        -115.30709838867188,
        -475.0015869140625
      ],
      "type": "VEC3"
    },
    {
      "bufferView": 2,
      "byteOffset": 285528,
      "componentType": 5126,
      "count": 4072,
      "max": [
        0.9918121695518494,
        0.9929704666137695,
        0.9984112977981567
      ],
      "min": [
        -0.9918121695518494,
        -0.9867289066314697,
        -0.9981448650360107
      ],
      "type": "VEC3"
    },
    {
      "bufferView": 1,
      "byteOffset": 78888,
      "componentType": 5126,
      "count": 4072,
      "max": [
        1.0,
        1.0
      ],
      "min": [
        -0.027799999341368675,
        0.0
      ],
      "type": "VEC2"
    },
    {
      "bufferView": 0,
      "byteOffset": 185952,
      "componentType": 5125,
      "count": 15936,
      "type": "SCALAR"
    }
  ],
  "asset": {
    "extras": {
      "author": "mariana.com520 (https://sketchfab.com/mariana.com520)",
      "license": "CC-BY-4.0 (http://creativecommons.org/licenses/by/4.0/)",
      "source": "https://sketchfab.com/3d-models/estrutura-de-um-robo-b15d7a05c8484f92b3a7859f536c0bcb",
      "title": "Estrutura de um robô"
    },
    "generator": "Sketchfab-12.66.0",
    "version": "2.0"
  },
  "bufferViews": [
    {
      "buffer": 0,
      "byteLength": 249696,
      "name": "floatBufferViews",
      "target": 34963
    },
    {
      "buffer": 0,
      "byteLength": 111464,
      "byteOffset": 249696,
      "byteStride": 8,
      "name": "floatBufferViews",
      "target": 34962
    },
    {
      "buffer": 0,
      "byteLength": 334392,
      "byteOffset": 361160,
      "byteStride": 12,
      "name": "floatBufferViews",
      "target": 34962
    }
  ],
  "buffers": [
    {
      "byteLength": 695552,
      "uri": "scene.bin"
    }
  ],
  "materials": [
    {
      "doubleSided": true,
      "name": "wire_153228214",
      "pbrMetallicRoughness": {
        "metallicFactor": 0.0,
        "roughnessFactor": 0.6
      }
    }
  ],
  "meshes": [
    {
      "name": "Object_0",
      "primitives": [
        {
          "attributes": {
            "NORMAL": 1,
            "POSITION": 0,
            "TEXCOORD_0": 2
          },
          "indices": 3,
          "material": 0,
          "mode": 4
        }
      ]
    },
    {
      "name": "Object_1",
      "primitives": [
        {
          "attributes": {
            "NORMAL": 5,
            "POSITION": 4,
            "TEXCOORD_0": 6
          },
          "indices": 7,
          "material": 0,
          "mode": 4
        }
      ]
    }
  ],
  "nodes": [
    {
      "children": [
        1
      ],
      "matrix": [
        1.0,
        0.0,
        0.0,
        0.0,
        0.0,
        2.220446049250313e-16,
        -1.0,
        0.0,
        0.0,
        1.0,
        2.220446049250313e-16,
        0.0,
        0.0,
        0.0,
        0.0,
        1.0
      ],
      "name": "Sketchfab_model"
    },
    {
      "children": [
        2,
        3
      ],
      "name": "ONDAR MODEL 1.obj.cleaner.materialmerger.gles"
    },
    {
      "mesh": 0,
      "name": "Object_2"
    },
    {
      "mesh": 1,
      "name": "Object_3"
    }
  ],
  "scene": 0,
  "scenes": [
    {
      "name": "Sketchfab_Scene",
      "nodes": [
        0
      ]
    }
  ]
}
